<?xml version="1.0" encoding="UTF-8"?>
<svg xmlns="http://www.w3.org/2000/svg" xmlns:xlink="http://www.w3.org/1999/xlink" width="640px" height="480px" viewBox="0 0 640 480" version="1.1">
<defs>
<clipPath id="clip1">
  <path d="M 77 0.867188 L 563 0.867188 L 563 479 L 77 479 Z M 77 0.867188 "/>
</clipPath>
</defs>
<g id="surface1">
<path style="fill-rule:nonzero;fill:rgb(100%,100%,100%);fill-opacity:1;stroke-width:6.875;stroke-linecap:butt;stroke-linejoin:miter;stroke:rgb(100%,100%,100%);stroke-opacity:1;stroke-miterlimit:8;" d="M 669.502319 289.506022 L 2869.497681 289.506022 L 2869.497681 1939.493978 L 669.502319 1939.493978 Z M 669.502319 289.506022 " transform="matrix(0.289986,0,0,0.28968,-193.130947,-82.848521)"/>
<g clip-path="url(#clip1)" clip-rule="nonzero">
<path style=" stroke:none;fill-rule:evenodd;fill:rgb(100%,100%,100%);fill-opacity:1;" d="M 562.054688 216.890625 C 562.089844 149.167969 510.113281 92.738281 442.546875 87.144531 C 418.277344 19.460938 343.675781 -15.75 275.921875 8.496094 C 239.222656 21.628906 210.332031 50.484375 197.1875 87.144531 C 125.488281 93.066406 72.171875 155.925781 78.097656 227.546875 C 80.96875 262.257812 97.652344 294.371094 124.414062 316.699219 C 106.753906 386.414062 149.019531 457.226562 218.804688 474.863281 C 253.238281 483.566406 289.738281 477.851562 319.859375 459.050781 C 380.953125 497.125 461.378906 478.519531 499.496094 417.488281 C 518.265625 387.4375 523.972656 351.046875 515.304688 316.699219 C 544.949219 292.015625 562.082031 255.445312 562.054688 216.890625 Z M 562.054688 216.890625 "/>
<path style=" stroke:none;fill-rule:evenodd;fill:rgb(0%,19.607843%,51.372552%);fill-opacity:1;" d="M 562.054688 216.890625 C 562.089844 149.167969 510.113281 92.738281 442.546875 87.144531 C 418.277344 19.460938 343.675781 -15.75 275.921875 8.496094 C 239.222656 21.628906 210.332031 50.484375 197.1875 87.144531 C 125.488281 93.066406 72.171875 155.925781 78.097656 227.546875 C 80.96875 262.257812 97.652344 294.371094 124.414062 316.699219 C 106.753906 386.414062 149.019531 457.226562 218.804688 474.863281 C 253.238281 483.566406 289.738281 477.851562 319.859375 459.050781 C 380.953125 497.125 461.378906 478.519531 499.496094 417.488281 C 518.265625 387.4375 523.972656 351.046875 515.304688 316.699219 C 544.949219 292.015625 562.082031 255.445312 562.054688 216.890625 Z M 492.523438 304.667969 C 516.371094 359.636719 491.09375 423.507812 436.0625 447.328125 C 397.917969 463.839844 353.679688 457.148438 322.140625 430.089844 C 276.625 469.109375 208.0625 463.886719 169 418.421875 C 142.359375 387.414062 135.421875 344.085938 151.046875 306.324219 C 100.203125 274.566406 84.757812 207.644531 116.546875 156.851562 C 136.390625 125.160156 171.167969 105.902344 208.585938 105.890625 C 210.847656 105.890625 213.046875 105.890625 215.25 106.117188 C 229.984375 48.058594 289.050781 12.925781 347.171875 27.648438 C 385.785156 37.429688 415.933594 67.546875 425.726562 106.117188 C 427.925781 105.933594 430.164062 105.890625 432.386719 105.890625 C 492.347656 105.890625 540.957031 154.445312 540.960938 214.339844 C 540.964844 250.644531 522.78125 284.542969 492.523438 304.648438 Z M 492.523438 304.667969 "/>
</g>
<path style=" stroke:none;fill-rule:evenodd;fill:rgb(89.411765%,12.156863%,12.54902%);fill-opacity:1;" d="M 526.363281 217.125 C 526.402344 162.277344 481.921875 117.78125 427.015625 117.738281 C 426.980469 117.738281 426.945312 117.738281 426.914062 117.738281 C 423.78125 117.738281 420.609375 117.925781 417.519531 118.179688 C 405.476562 64.652344 352.277344 31.011719 298.691406 43.042969 C 261.191406 51.460938 231.902344 80.71875 223.476562 118.179688 C 220.402344 117.925781 217.273438 117.738281 214.144531 117.738281 C 159.230469 117.6875 114.667969 162.117188 114.621094 216.976562 C 114.589844 252.5 133.550781 285.335938 164.351562 303.09375 C 142.542969 353.453125 165.734375 411.933594 216.144531 433.71875 C 251.808594 449.128906 293.195312 442.378906 322.097656 416.433594 C 362.988281 453.078125 425.871094 449.667969 462.550781 408.824219 C 488.863281 379.523438 495.378906 337.472656 479.171875 301.601562 C 508.515625 283.539062 526.382812 251.5625 526.363281 217.125 Z M 462.289062 295.347656 C 488.640625 335.691406 477.265625 389.734375 436.878906 416.058594 C 399.605469 440.355469 350.003906 432.757812 321.726562 398.421875 C 291.125 435.667969 236.09375 441.074219 198.8125 410.503906 C 164.777344 382.59375 156.867188 333.75 180.34375 296.542969 C 135.9375 277.742188 115.195312 226.542969 134.015625 182.183594 C 150.636719 143.003906 193.132812 121.523438 234.578125 131.34375 C 239.601562 83.441406 282.546875 48.671875 330.503906 53.691406 C 371.304688 57.960938 403.628906 90.03125 408.175781 130.761719 C 455.429688 121.175781 501.515625 151.667969 511.113281 198.871094 C 519.15625 238.429688 498.972656 278.335938 462.316406 295.335938 Z M 462.289062 295.347656 "/>
<path style=" stroke:none;fill-rule:evenodd;fill:rgb(0%,19.607843%,51.372552%);fill-opacity:1;" d="M 321.636719 97.296875 C 288.332031 97.335938 261.367188 124.335938 261.410156 157.605469 C 261.445312 190.875 288.476562 217.808594 321.78125 217.773438 C 355.066406 217.730469 382.023438 190.761719 382.011719 157.511719 C 381.992188 124.238281 354.976562 97.277344 321.667969 97.296875 C 321.660156 97.296875 321.648438 97.296875 321.636719 97.296875 Z M 321.636719 186.574219 C 305.574219 186.558594 292.570312 173.539062 292.585938 157.492188 C 292.605469 141.449219 305.636719 128.457031 321.699219 128.472656 C 337.746094 128.488281 350.746094 141.484375 350.75 157.511719 C 350.765625 173.550781 337.765625 186.566406 321.707031 186.585938 C 321.679688 186.585938 321.648438 186.585938 321.617188 186.585938 Z M 321.636719 186.574219 "/>
<path style=" stroke:none;fill-rule:evenodd;fill:rgb(100%,100%,100%);fill-opacity:1;" d="M 314.433594 124.382812 L 329.609375 124.382812 L 322.382812 101.324219 Z M 314.433594 124.382812 "/>
<path style=" stroke:none;fill-rule:evenodd;fill:rgb(100%,100%,100%);fill-opacity:1;" d="M 298.789062 132.4375 L 311.914062 124.875 L 294.101562 108.449219 Z M 298.789062 132.4375 "/>
<path style=" stroke:none;fill-rule:evenodd;fill:rgb(100%,100%,100%);fill-opacity:1;" d="M 289.269531 147.230469 L 296.863281 134.09375 L 273.238281 128.808594 Z M 289.269531 147.230469 "/>
<path style=" stroke:none;fill-rule:evenodd;fill:rgb(100%,100%,100%);fill-opacity:1;" d="M 288.445312 164.761719 L 288.445312 149.613281 L 265.347656 156.765625 Z M 288.445312 164.761719 "/>
<path style=" stroke:none;fill-rule:evenodd;fill:rgb(100%,100%,100%);fill-opacity:1;" d="M 296.503906 180.371094 L 288.921875 167.253906 L 272.550781 185.050781 Z M 296.503906 180.371094 "/>
<path style=" stroke:none;fill-rule:evenodd;fill:rgb(100%,100%,100%);fill-opacity:1;" d="M 311.28125 189.886719 L 298.171875 182.3125 L 292.84375 205.914062 Z M 311.28125 189.886719 "/>
<path style=" stroke:none;fill-rule:evenodd;fill:rgb(100%,100%,100%);fill-opacity:1;" d="M 328.839844 190.722656 L 313.6875 190.722656 L 320.921875 213.828125 Z M 328.839844 190.722656 "/>
<path style=" stroke:none;fill-rule:evenodd;fill:rgb(100%,100%,100%);fill-opacity:1;" d="M 344.507812 182.667969 L 331.347656 190.234375 L 349.195312 206.589844 Z M 344.507812 182.667969 "/>
<path style=" stroke:none;fill-rule:evenodd;fill:rgb(100%,100%,100%);fill-opacity:1;" d="M 353.984375 167.878906 L 346.421875 180.992188 L 370.070312 186.277344 Z M 353.984375 167.878906 "/>
<path style=" stroke:none;fill-rule:evenodd;fill:rgb(100%,100%,100%);fill-opacity:1;" d="M 354.832031 150.359375 L 354.832031 165.496094 L 377.960938 158.289062 Z M 354.832031 150.359375 "/>
<path style=" stroke:none;fill-rule:evenodd;fill:rgb(100%,100%,100%);fill-opacity:1;" d="M 346.808594 134.738281 L 354.382812 147.855469 L 370.753906 130.058594 Z M 346.808594 134.738281 "/>
<path style=" stroke:none;fill-rule:evenodd;fill:rgb(100%,100%,100%);fill-opacity:1;" d="M 332.003906 125.222656 L 345.132812 132.785156 L 350.410156 109.195312 Z M 332.003906 125.222656 "/>
<path style=" stroke:none;fill-rule:nonzero;fill:rgb(100%,100%,100%);fill-opacity:1;" d="M 394.351562 307.980469 C 394.359375 349.085938 361.003906 382.410156 319.859375 382.414062 C 278.707031 382.421875 245.347656 349.105469 245.34375 308 C 245.335938 266.898438 278.6875 233.570312 319.835938 233.5625 C 319.839844 233.5625 319.84375 233.5625 319.847656 233.5625 C 360.988281 233.5625 394.347656 266.878906 394.351562 307.980469 "/>
<path style=" stroke:none;fill-rule:nonzero;fill:rgb(86.666667%,85.490197%,27.058825%);fill-opacity:1;" d="M 281.976562 327.839844 L 281.980469 282.597656 L 321.132812 305.183594 L 321.089844 350.214844 C 307.984375 342.871094 281.976562 327.839844 281.976562 327.839844 Z M 312.222656 333.609375 C 312.222656 330.960938 312.183594 330.523438 311.921875 330.21875 C 311.753906 330.027344 308.265625 328.042969 304.167969 325.808594 C 296.050781 321.386719 295.289062 320.933594 294.214844 319.863281 C 292.902344 318.5625 292.898438 318.53125 292.832031 311.902344 C 292.773438 306.207031 292.78125 306.019531 293.113281 305.777344 C 293.800781 305.273438 293.683594 305.222656 303.617188 310.703125 C 312.308594 315.5 311.855469 315.269531 312.058594 314.941406 C 312.144531 314.808594 312.214844 313.339844 312.21875 311.679688 C 312.222656 309.042969 312.183594 308.613281 311.921875 308.316406 C 311.574219 307.921875 295.566406 299.046875 294.308594 298.554688 C 291.394531 297.410156 289.554688 297.890625 288.59375 300.0625 C 288 301.402344 287.894531 302.839844 287.894531 309.21875 C 287.894531 317.554688 288.238281 319.769531 289.984375 322.742188 C 290.832031 324.191406 293.183594 326.585938 294.761719 327.609375 C 295.390625 328.015625 299.476562 330.296875 303.84375 332.675781 C 309.648438 335.835938 311.851562 336.957031 312.007812 336.828125 C 312.164062 336.699219 312.222656 335.835938 312.222656 333.609375 Z M 322.074219 258.378906 C 322.070312 253.675781 322.066406 251.257812 322 244.667969 C 346.855469 244.628906 365.066406 259.769531 373.519531 274.421875 C 362.871094 280.609375 361.703125 281.28125 361.703125 281.28125 C 353.894531 267.941406 339.023438 258.539062 322.074219 258.378906 Z M 322.074219 258.378906 "/>
<path style=" stroke:none;fill-rule:nonzero;fill:rgb(90.588236%,46.27451%,16.470589%);fill-opacity:1;" d="M 362.191406 327.785156 C 370.746094 312.363281 369.382812 295.054688 362.183594 282.121094 C 362.277344 281.875 370.074219 277.5625 374 275.253906 C 386.078125 297.355469 382.609375 319.828125 374.03125 334.636719 C 369.234375 331.945312 366.707031 330.445312 362.191406 327.785156 Z M 362.191406 327.785156 "/>
<path style=" stroke:none;fill-rule:nonzero;fill:rgb(87.843138%,15.686275%,14.901961%);fill-opacity:1;" d="M 322.070312 305.183594 C 335.308594 297.472656 361.128906 282.777344 361.128906 282.777344 C 360.96875 312.980469 361.140625 284.699219 361.078125 327.855469 C 348.25 335.480469 336.285156 342.226562 322.070312 350.214844 C 321.996094 340.738281 322.070312 339.234375 322.070312 305.183594 Z M 333.898438 335.164062 L 334.925781 334.546875 L 336.46875 330.097656 L 338.011719 325.652344 L 343.488281 322.613281 C 346.503906 320.941406 349.023438 319.574219 349.089844 319.574219 C 349.15625 319.574219 349.765625 320.582031 350.441406 321.808594 C 351.121094 323.035156 351.808594 324.207031 351.972656 324.40625 L 352.273438 324.773438 L 354.222656 323.671875 C 355.292969 323.0625 356.195312 322.4375 356.226562 322.285156 C 356.253906 322.128906 354.550781 318.742188 352.441406 314.753906 C 350.328125 310.769531 347.921875 306.210938 347.089844 304.628906 C 345.453125 301.515625 345.09375 301.125 344.0625 301.351562 C 343.398438 301.5 342.382812 302.515625 341.921875 303.492188 C 341.726562 303.914062 339.863281 309.070312 337.785156 314.953125 C 335.707031 320.839844 333.113281 328.179688 332.019531 331.265625 C 330.921875 334.351562 330.078125 336.957031 330.136719 337.046875 C 330.238281 337.214844 331.703125 336.484375 333.898438 335.164062 Z M 342 314.03125 C 342.820312 311.625 343.5625 309.671875 343.644531 309.695312 C 343.882812 309.773438 346.6875 314.949219 346.582031 315.121094 C 346.484375 315.273438 341.382812 318.082031 340.796875 318.300781 C 340.566406 318.386719 340.828125 317.453125 342 314.03125 Z M 269.039062 275.371094 L 280.910156 282.03125 C 272.613281 298.675781 273.390625 311.292969 280.84375 327.765625 L 269.019531 334.53125 C 257.132812 313.128906 260.503906 290.445312 269.039062 275.371094 Z M 269.039062 275.371094 "/>
<path style=" stroke:none;fill-rule:nonzero;fill:rgb(23.921569%,61.176473%,27.450982%);fill-opacity:1;" d="M 269.609375 274.378906 C 278.738281 257.863281 299 244.640625 321.046875 244.6875 L 321.046875 258.378906 C 302.199219 259.050781 289.160156 268.601562 281.394531 281.203125 C 276.90625 278.605469 274.714844 277.320312 269.609375 274.378906 Z M 269.609375 274.378906 "/>
<path style=" stroke:none;fill-rule:nonzero;fill:rgb(93.333334%,93.333334%,92.54902%);fill-opacity:1;" d="M 281.328125 328.605469 C 290.023438 343.066406 305.359375 351.351562 321.074219 351.546875 L 321.089844 365.070312 C 300.453125 365.195312 280.332031 353.988281 269.527344 335.414062 Z M 281.328125 328.605469 "/>
<path style=" stroke:none;fill-rule:nonzero;fill:rgb(18.82353%,29.019609%,58.823532%);fill-opacity:1;" d="M 322.074219 365.082031 C 321.964844 360.558594 322.042969 356.074219 322.074219 351.546875 C 340.660156 351.554688 356.023438 339.042969 361.6875 328.65625 C 366.796875 331.601562 368.707031 332.710938 373.539062 335.492188 C 363.484375 352.730469 343.652344 365.195312 322.074219 365.082031 Z M 282.582031 281.832031 L 321.558594 259.410156 L 360.597656 281.929688 L 321.601562 304.328125 Z M 314.726562 294.105469 C 315.109375 293.90625 315.539062 293.570312 315.683594 293.351562 C 315.820312 293.136719 317.152344 290.628906 318.636719 287.78125 C 320.121094 284.933594 321.390625 282.601562 321.453125 282.601562 C 321.519531 282.601562 322.804688 284.996094 324.308594 287.921875 C 326.1875 291.578125 327.21875 293.398438 327.597656 293.734375 C 328.734375 294.742188 330.882812 294.84375 332.171875 293.949219 C 332.816406 293.507812 333.238281 292.734375 337.636719 283.996094 C 340.257812 278.789062 342.363281 274.417969 342.3125 274.285156 C 342.234375 274.089844 341.675781 274.042969 339.429688 274.046875 C 337.894531 274.050781 336.550781 274.105469 336.445312 274.171875 C 336.335938 274.242188 334.851562 277.101562 333.136719 280.527344 C 331.402344 283.992188 329.957031 286.6875 329.875 286.605469 C 329.796875 286.519531 328.554688 284.183594 327.121094 281.402344 C 325.683594 278.625 324.316406 276.09375 324.082031 275.777344 C 322.933594 274.226562 320.171875 274.179688 318.898438 275.695312 C 318.667969 275.96875 317.242188 278.558594 315.734375 281.449219 C 314.226562 284.339844 312.949219 286.707031 312.902344 286.707031 C 312.847656 286.710938 311.464844 283.992188 309.820312 280.675781 C 308.179688 277.355469 306.722656 274.507812 306.589844 274.339844 C 306.375 274.082031 306.007812 274.042969 303.671875 274.046875 C 302.199219 274.050781 300.890625 274.117188 300.757812 274.199219 C 300.492188 274.367188 301.839844 277.300781 306.960938 287.738281 C 309.71875 293.351562 310.066406 293.886719 311.304688 294.34375 C 312.1875 294.675781 313.835938 294.554688 314.726562 294.105469 Z M 314.726562 294.105469 "/>
<path style="fill:none;stroke-width:3.53851;stroke-linecap:butt;stroke-linejoin:miter;stroke:rgb(0%,0%,0%);stroke-opacity:1;stroke-miterlimit:4;" d="M 1963.744019 1511.503068 C 1963.744019 1520.133276 1956.73938 1527.145321 1948.091345 1527.145321 C 1939.443311 1527.145321 1932.438672 1520.133276 1932.438672 1511.503068 C 1932.438672 1502.84589 1939.443311 1495.833846 1948.091345 1495.833846 C 1956.73938 1495.833846 1963.744019 1502.84589 1963.744019 1511.503068 Z M 1963.744019 1511.503068 " transform="matrix(0.289986,0,0,0.28968,-193.130947,-82.848521)"/>
<path style=" stroke:none;fill-rule:nonzero;fill:rgb(0%,0%,0%);fill-opacity:1;" d="M 371.511719 354.589844 C 371.792969 354.589844 372 354.535156 372.121094 354.425781 C 372.246094 354.324219 372.3125 354.152344 372.3125 353.90625 C 372.3125 353.664062 372.246094 353.492188 372.121094 353.386719 C 372 353.285156 371.792969 353.234375 371.511719 353.234375 L 370.9375 353.234375 L 370.9375 354.589844 L 371.511719 354.589844 M 370.9375 355.53125 L 370.9375 357.527344 L 369.574219 357.527344 L 369.574219 352.246094 L 371.65625 352.246094 C 372.355469 352.246094 372.863281 352.359375 373.1875 352.597656 C 373.515625 352.828125 373.671875 353.199219 373.671875 353.707031 C 373.671875 354.054688 373.59375 354.339844 373.421875 354.566406 C 373.253906 354.785156 373 354.957031 372.660156 355.058594 C 372.847656 355.105469 373.011719 355.203125 373.160156 355.351562 C 373.308594 355.5 373.460938 355.722656 373.605469 356.03125 L 374.347656 357.527344 L 372.898438 357.527344 L 372.253906 356.214844 C 372.121094 355.957031 371.992188 355.769531 371.859375 355.679688 C 371.722656 355.582031 371.546875 355.53125 371.320312 355.53125 L 370.9375 355.53125 "/>
</g>
</svg>
